nColumns=19
nRows=43
DataType=double
version=3
OpenSimVersion=4.1
endheader
time	ground_force_calcn_r_vx	ground_force_calcn_r_vy	ground_force_calcn_r_vz	ground_force_calcn_r_px	ground_force_calcn_r_py	ground_force_calcn_r_pz	ground_force_calcn_r_mx	ground_force_calcn_r_my	ground_force_calcn_r_mz	ground_force_calcn_l_vx	ground_force_calcn_l_vy	ground_force_calcn_l_vz	ground_force_calcn_l_px	ground_force_calcn_l_py	ground_force_calcn_l_pz	ground_force_calcn_l_mx	ground_force_calcn_l_my	ground_force_calcn_l_mz
0	-1.22986	402.73	-54.9237	-0.261742	0	-0.400639	0.00197237	-0.645872	0.0880831	3.78057	410.702	55.1937	-0.263925	0	-0.865429	0.00237063	0.257533	0.0346095
0.01	-1.21013	402.397	-54.8399	-0.261668	0	-0.400726	0.00192621	-0.640514	0.0872912	3.79098	411.032	55.193	-0.263966	0	-0.865447	0.00226242	0.2453	0.0329387
0.02	-1.20711	402	-54.7451	-0.261572	0	-0.400802	0.00190713	-0.635126	0.0864926	3.79516	411.436	55.2003	-0.263985	0	-0.865463	0.00214363	0.232392	0.0311789
0.03	-1.22545	401.536	-54.6397	-0.261451	0	-0.400863	0.00192242	-0.629905	0.0857155	3.79088	411.911	55.2157	-0.263973	0	-0.865472	0.00201545	0.218995	0.0293558
0.04	-1.26933	401.002	-54.5236	-0.261301	0	-0.400907	0.00197846	-0.625029	0.0849842	3.77591	412.454	55.2381	-0.263928	0	-0.865476	0.00187818	0.205159	0.027476
0.05	-1.34224	400.4	-54.3971	-0.261116	0	-0.400931	0.00208068	-0.620678	0.0843234	3.74777	413.057	55.2653	-0.263843	0	-0.865474	0.00173169	0.190857	0.0255358
0.06	-1.44775	399.737	-54.2617	-0.260892	0	-0.400934	0.00223478	-0.617043	0.0837596	3.70392	413.709	55.2941	-0.263719	0	-0.865465	0.00157508	0.175928	0.0235136
0.07	-1.59001	399.028	-54.1212	-0.260623	0	-0.400913	0.00244808	-0.61437	0.0833286	3.64177	414.392	55.32	-0.263548	0	-0.865452	0.0014075	0.160157	0.0213805
0.08	-1.77373	398.293	-53.9806	-0.260304	0	-0.400868	0.00272964	-0.612944	0.0830722	3.55844	415.081	55.338	-0.26333	0	-0.865433	0.00122905	0.143365	0.0191133
0.09	-2.00359	397.558	-53.8466	-0.25993	0	-0.400794	0.00308962	-0.613053	0.0830339	3.45081	415.743	55.343	-0.263062	0	-0.865411	0.00104126	0.125447	0.0166993
0.1	-2.28351	396.851	-53.7266	-0.259492	0	-0.40069	0.00353842	-0.614942	0.0832522	3.31591	416.341	55.3293	-0.262741	0	-0.865387	0.000847633	0.106428	0.0141436
0.11	-2.61599	396.199	-53.6275	-0.258989	0	-0.400555	0.00408498	-0.61868	0.0837415	3.15104	416.833	55.2922	-0.262363	0	-0.865362	0.000653509	0.0864489	0.0114673
0.12	-3.00171	395.623	-53.5551	-0.258415	0	-0.400385	0.00473599	-0.624201	0.0844973	2.95337	417.182	55.2276	-0.261928	0	-0.865338	0.000465719	0.0657858	0.00870891
0.13	-3.43931	395.138	-53.5134	-0.25777	0	-0.400182	0.00549567	-0.631391	0.0855091	2.7202	417.353	55.1326	-0.261433	0	-0.865317	0.000292459	0.0448711	0.0059275
0.14	-3.92464	394.746	-53.5047	-0.257059	0	-0.399947	0.00636588	-0.640291	0.0867862	2.44991	417.321	55.005	-0.260879	0	-0.8653	0.000142828	0.0243295	0.00320676
0.15	-4.44991	394.449	-53.5293	-0.256289	0	-0.399682	0.00734501	-0.651076	0.0883553	2.14265	417.065	54.8437	-0.260265	0	-0.865292	2.58509e-05	0.00503186	0.000661685
0.16	-5.0042	394.243	-53.5868	-0.255472	0	-0.399393	0.00842842	-0.664011	0.0902546	1.79957	416.571	54.6478	-0.259594	0	-0.865291	-5.2329e-05	-0.0121133	-0.00158908
0.17	-5.5746	394.125	-53.6754	-0.254621	0	-0.399083	0.0096093	-0.679379	0.0925239	1.42258	415.827	54.4169	-0.258869	0	-0.865302	-8.97673e-05	-0.0262393	-0.00343379
0.18	-6.14707	394.091	-53.7935	-0.253752	0	-0.398758	0.0108783	-0.697408	0.0951964	1.01459	414.823	54.1508	-0.258094	0	-0.865326	-8.92273e-05	-0.0364811	-0.00476222
0.19	-6.70869	394.136	-53.94	-0.252882	0	-0.398421	0.0122243	-0.718178	0.0982871	0.579363	413.549	53.8498	-0.257273	0	-0.865366	-5.8764e-05	-0.0419457	-0.0054619
0.2	-7.24878	394.261	-54.1157	-0.252028	0	-0.398076	0.0136357	-0.741645	0.101797	0.122009	411.996	53.515	-0.256415	0	-0.865425	-1.23684e-05	-0.0417653	-0.00542498
0.21	-7.75927	394.466	-54.3232	-0.251203	0	-0.397729	0.0150998	-0.767643	0.105715	-0.349813	410.159	53.149	-0.255526	0	-0.865503	2.99866e-05	-0.0351596	-0.00455603
0.22	-8.23326	394.755	-54.5653	-0.250421	0	-0.397384	0.0166007	-0.795943	0.11002	-0.826921	408.039	52.7568	-0.254618	0	-0.865606	4.37896e-05	-0.0216077	-0.00279374
0.23	-8.66387	395.129	-54.8433	-0.249694	0	-0.397042	0.0181177	-0.826282	0.114687	-1.30204	405.647	52.3465	-0.253699	0	-0.865733	2.76252e-06	-0.000860659	-0.000111063
0.24	-9.04405	395.581	-55.1559	-0.249033	0	-0.39671	0.0196243	-0.858356	0.119681	-1.77223	403.003	51.9288	-0.25278	0	-0.865889	-0.000118839	0.0270238	0.00348214
0.25	-9.36617	396.1	-55.4988	-0.248448	0	-0.396387	0.0210878	-0.891811	0.124954	-2.2381	400.138	51.5159	-0.251869	0	-0.866075	-0.00034506	0.0616915	0.00794249
0.26	-9.62438	396.66	-55.8646	-0.247942	0	-0.396078	0.0224758	-0.926319	0.13046	-2.70166	397.089	51.1197	-0.250977	0	-0.866291	-0.000697413	0.102505	0.0131961
0.27	-9.81696	397.227	-56.2439	-0.247518	0	-0.395784	0.0237666	-0.961676	0.136165	-3.16331	393.901	50.7508	-0.250113	0	-0.866539	-0.00119442	0.148731	0.0191628
0.28	-9.94612	397.744	-56.6251	-0.247171	0	-0.395504	0.0249505	-0.997766	0.142048	-3.6175	390.618	50.4176	-0.249287	0	-0.866816	-0.00185039	0.199805	0.0257891
0.29	-10.0155	398.138	-56.9936	-0.246896	0	-0.39524	0.0260231	-1.03448	0.148086	-4.04909	387.274	50.1242	-0.248517	0	-0.86712	-0.00267097	0.255464	0.0330643
0.3	-10.026	398.309	-57.3302	-0.246683	0	-0.394989	0.0269764	-1.07171	0.154255	-4.43017	383.886	49.8696	-0.247815	0	-0.86745	-0.00364446	0.315802	0.041025
0.31	-9.97223	398.13	-57.6099	-0.246526	0	-0.394749	0.0277865	-1.10935	0.160524	-4.72446	380.447	49.6468	-0.2472	0	-0.867799	-0.00473165	0.381026	0.0497223
0.32	-9.84293	397.449	-57.8015	-0.246414	0	-0.394516	0.0284111	-1.14721	0.166841	-4.90048	376.931	49.4457	-0.246687	0	-0.868167	-0.00586365	0.451016	0.0591642
0.33	-9.62503	396.097	-57.869	-0.24634	0	-0.39429	0.0287979	-1.18511	0.173143	-4.94314	373.305	49.2558	-0.246282	0	-0.868545	-0.00695129	0.524961	0.069266
0.34	-9.30854	393.904	-57.7755	-0.246298	0	-0.394067	0.0288981	-1.22286	0.179362	-4.86071	369.55	49.0687	-0.245986	0	-0.868933	-0.00790843	0.601261	0.0798354
0.35	-8.89243	390.721	-57.489	-0.246277	0	-0.393845	0.0286815	-1.26022	0.185424	-4.68518	365.673	48.8802	-0.245789	0	-0.869323	-0.00868363	0.677748	0.0905959
0.36	-8.38941	386.437	-56.9879	-0.246271	0	-0.393623	0.0281532	-1.29681	0.19124	-4.46485	361.723	48.6912	-0.245678	0	-0.869712	-0.00928221	0.752004	0.101227
0.37	-7.82635	381.006	-56.2657	-0.246269	0	-0.393399	0.0273629	-1.33209	0.196719	-4.25099	357.785	48.5057	-0.245636	0	-0.870094	-0.00976463	0.821843	0.111419
0.38	-7.24019	374.453	-55.3329	-0.246264	0	-0.39317	0.0264022	-1.36548	0.201778	-4.08527	353.969	48.3278	-0.245652	0	-0.870461	-0.0102237	0.885834	0.120944
0.39	-6.66968	366.879	-54.2137	-0.246246	0	-0.392935	0.0253854	-1.39638	0.206343	-3.99569	350.396	48.1609	-0.245716	0	-0.870806	-0.0107582	0.943425	0.129671
0.4	-6.14556	358.45	-52.9396	-0.246217	0	-0.392696	0.0244183	-1.42424	0.210346	-3.99843	347.19	48.0095	-0.245826	0	-0.871122	-0.0114577	0.994889	0.137574
0.41	-5.68354	349.381	-51.5423	-0.246183	0	-0.392456	0.0235691	-1.44885	0.213741	-4.09804	344.457	47.8767	-0.245983	0	-0.8714	-0.0123875	1.04122	0.144721
0.42	-5.28084	339.924	-50.0507	-0.246164	0	-0.392225	0.0228463	-1.4706	0.216533	-4.28651	342.273	47.7608	-0.246192	0	-0.871636	-0.0135773	1.08413	0.15128
